nColumns=28
nRows=80
DataType=double
version=3
OpenSimVersion=4.1
endheader
time	ground_force_1_vx	ground_force_1_vy	ground_force_1_vz	ground_force_1_px	ground_force_1_py	ground_force_1_pz	ground_force_1_mx	ground_force_1_my	ground_force_1_mz	ground_force_2_vx	ground_force_2_vy	ground_force_2_vz	ground_force_2_px	ground_force_2_py	ground_force_2_pz	ground_force_2_mx	ground_force_2_my	ground_force_2_mz	ground_force_3_vx	ground_force_3_vy	ground_force_3_vz	ground_force_3_px	ground_force_3_py	ground_force_3_pz	ground_force_3_mx	ground_force_3_my	ground_force_3_mz
3.3	6.57374	310.352	-34.0197	-0.268406	0.006	-0.409734	0	-1.37212	0	-6.58211	262.416	37.9996	-0.223732	0.006	-0.768016	0	0.350986	0	0	0	0	0	0	0	0	0	0
3.31	6.65813	306.382	-33.2569	-0.2696	0.006	-0.410049	0	-1.30136	0	-6.55971	257.496	36.6121	-0.225882	0.006	-0.767484	0	0.340236	0	0	0	0	0	0	0	0	0	0
3.32	6.67636	302.261	-32.6484	-0.270729	0.006	-0.410324	0	-1.22183	0	-6.38933	252.035	35.2286	-0.228163	0.006	-0.766952	0	0.337392	0	0	0	0	0	0	0	0	0	0
3.33	6.6497	298.015	-32.1872	-0.271787	0.006	-0.410556	0	-1.13655	0	-6.07781	246.105	33.8711	-0.230554	0.006	-0.766425	0	0.342068	0	0	0	0	0	0	0	0	0	0
3.34	6.60159	293.675	-31.8582	-0.272767	0.006	-0.410746	0	-1.04843	0	-5.64282	239.801	32.5612	-0.233031	0.006	-0.765905	0	0.353862	0	0	0	0	0	0	0	0	0	0
3.35	6.55155	289.273	-31.6385	-0.273663	0.006	-0.410895	0	-0.960009	0	-5.10996	233.245	31.3182	-0.235568	0.006	-0.765395	0	0.372535	0	0	0	0	0	0	0	0	0	0
3.36	6.5109	284.856	-31.4984	-0.274463	0.006	-0.411006	0	-0.87339	0	-4.5067	226.579	30.1578	-0.238137	0.006	-0.764898	0	0.398063	0	0	0	0	0	0	0	0	0	0
3.37	6.48192	280.489	-31.4048	-0.275154	0.006	-0.411084	0	-0.79018	0	-3.85743	219.963	29.0917	-0.240709	0.006	-0.764417	0	0.430651	0	0	0	0	0	0	0	0	0	0
3.38	6.46274	276.266	-31.3259	-0.275721	0.006	-0.411132	0	-0.711651	0	-3.1831	213.561	28.1278	-0.243252	0.006	-0.763953	0	0.470624	0	0	0	0	0	0	0	0	0	0
3.39	6.45356	272.304	-31.2348	-0.276146	0.006	-0.411158	0	-0.638833	0	-2.50104	207.539	27.2707	-0.24573	0.006	-0.763508	0	0.518189	0	0	0	0	0	0	0	0	0	0
3.4	6.45706	268.733	-31.1126	-0.276417	0.006	-0.411165	0	-0.57266	0	-1.82238	202.047	26.5229	-0.248105	0.006	-0.763087	0	0.573459	0	0	0	0	0	0	0	0	0	0
3.41	6.4764	265.683	-30.95	-0.27652	0.006	-0.411158	0	-0.51398	0	-1.15019	197.208	25.8842	-0.250339	0.006	-0.762691	0	0.636386	0	0	0	0	0	0	0	0	0	0
3.42	6.51413	263.269	-30.7467	-0.276448	0.006	-0.411141	0	-0.463457	0	-0.482975	193.096	25.3521	-0.25239	0.006	-0.762323	0	0.706571	0	0	0	0	0	0	0	0	0	0
3.43	6.57528	261.566	-30.5086	-0.276197	0.006	-0.411113	0	-0.421513	0	0.179251	189.737	24.921	-0.254222	0.006	-0.761987	0	0.783053	0	0	0	0	0	0	0	0	0	0
3.44	6.67243	260.591	-30.2435	-0.27577	0.006	-0.411075	0	-0.388494	0	0.833809	187.114	24.5814	-0.255801	0.006	-0.761681	0	0.86439	0	0	0	0	0	0	0	0	0	0
3.45	6.82436	260.292	-29.9596	-0.275175	0.006	-0.411024	0	-0.364786	0	1.47632	185.174	24.3203	-0.257106	0.006	-0.761404	0	0.948902	0	0	0	0	0	0	0	0	0	0
3.46	7.0471	260.562	-29.666	-0.274419	0.006	-0.410958	0	-0.350851	0	2.10377	183.853	24.1225	-0.258125	0.006	-0.761152	0	1.03486	0	0	0	0	0	0	0	0	0	0
3.47	7.34168	261.258	-29.3724	-0.273507	0.006	-0.410873	0	-0.347108	0	2.71364	183.102	23.9732	-0.258856	0.006	-0.760918	0	1.1206	0	0	0	0	0	0	0	0	0	0
3.48	7.68806	262.235	-29.0882	-0.272437	0.006	-0.410766	0	-0.353961	0	3.30069	182.9	23.8608	-0.259307	0.006	-0.760698	0	1.20473	0	0	0	0	0	0	0	0	0	0
3.49	8.0478	263.359	-28.8238	-0.271203	0.006	-0.410632	0	-0.371807	0	3.85695	183.256	23.7765	-0.259493	0.006	-0.76049	0	1.28623	0	0	0	0	0	0	0	0	0	0
3.5	8.37582	264.528	-28.5896	-0.269796	0.006	-0.410465	0	-0.400679	0	4.37455	184.176	23.712	-0.259435	0.006	-0.76029	0	1.36477	0	0	0	0	0	0	0	0	0	0
3.51	8.63413	265.668	-28.3943	-0.26821	0.006	-0.410261	0	-0.440083	0	4.84586	185.646	23.6588	-0.259153	0.006	-0.760096	0	1.44077	0	0	0	0	0	0	0	0	0	0
3.52	8.79741	266.752	-28.2432	-0.266442	0.006	-0.41002	0	-0.489054	0	5.25554	187.653	23.6131	-0.258667	0.006	-0.75991	0	1.51501	0	0	0	0	0	0	0	0	0	0
3.53	8.85161	267.819	-28.1369	-0.264494	0.006	-0.409747	0	-0.546289	0	5.58009	190.199	23.5778	-0.257991	0.006	-0.759735	0	1.58851	0	0	0	0	0	0	0	0	0	0
3.54	8.79011	268.98	-28.073	-0.262376	0.006	-0.40945	0	-0.610494	0	5.79333	193.29	23.5612	-0.257138	0.006	-0.759577	0	1.66235	0	0	0	0	0	0	0	0	0	0
3.55	8.61159	270.399	-28.0475	-0.260106	0.006	-0.40914	0	-0.6807	0	5.87397	196.919	23.5747	-0.25612	0.006	-0.759444	0	1.7376	0	0	0	0	0	0	0	0	0	0
3.56	8.31697	272.273	-28.0602	-0.257709	0.006	-0.408827	0	-0.75653	0	5.80874	201.073	23.6335	-0.254952	0.006	-0.759341	0	1.81512	0	0	0	0	0	0	0	0	0	0
3.57	7.90757	274.808	-28.1157	-0.255223	0.006	-0.408527	0	-0.838177	0	5.59199	205.741	23.7552	-0.25365	0.006	-0.759275	0	1.89537	0	0	0	0	0	0	0	0	0	0
3.58	7.38577	278.177	-28.2183	-0.25269	0.006	-0.408249	0	-0.926209	0	5.22699	210.908	23.9543	-0.252239	0.006	-0.759247	0	1.97868	0	0	0	0	0	0	0	0	0	0
3.59	6.75772	282.489	-28.3681	-0.250156	0.006	-0.408006	0	-1.02137	0	4.72809	216.528	24.2365	-0.250743	0.006	-0.759257	0	2.06523	0	0	0	0	0	0	0	0	0	0
3.6	6.0371	287.771	-28.5595	-0.247669	0.006	-0.407803	0	-1.12436	0	4.12475	222.506	24.5943	-0.249192	0.006	-0.759298	0	2.15494	0	0	0	0	0	0	0	0	0	0
3.61	5.24737	293.975	-28.7823	-0.245268	0.006	-0.407644	0	-1.23561	0	3.45762	228.711	25.0098	-0.247613	0.006	-0.759362	0	2.24757	0	0	0	0	0	0	0	0	0	0
3.62	4.42239	300.98	-29.0232	-0.242987	0.006	-0.407531	0	-1.35504	0	2.77281	235.006	25.4604	-0.246028	0.006	-0.759441	0	2.34284	0	0	0	0	0	0	0	0	0	0
3.63	3.60389	308.606	-29.2683	-0.240848	0.006	-0.40746	0	-1.48201	0	2.11532	241.265	25.9225	-0.244454	0.006	-0.759527	0	2.44044	0	0	0	0	0	0	0	0	0	0
3.64	2.8364	316.631	-29.5053	-0.238861	0.006	-0.407424	0	-1.61536	0	1.52102	247.38	26.3748	-0.242901	0.006	-0.759615	0	2.54008	0	0	0	0	0	0	0	0	0	0
3.65	2.16116	324.82	-29.7243	-0.237027	0.006	-0.407417	0	-1.75349	0	1.01084	253.272	26.803	-0.241374	0.006	-0.759701	0	2.64177	0	0	0	0	0	0	0	0	0	0
3.66	1.61031	332.94	-29.9188	-0.235336	0.006	-0.407429	0	-1.8947	0	0.590486	258.897	27.1996	-0.239878	0.006	-0.759784	0	2.74586	0	0	0	0	0	0	0	0	0	0
3.67	1.20224	340.779	-30.0866	-0.233772	0.006	-0.407452	0	-2.03754	0	0.254501	264.241	27.5618	-0.238411	0.006	-0.759863	0	2.85302	0	0	0	0	0	0	0	0	0	0
3.68	0.939538	348.154	-30.2316	-0.232313	0.006	-0.407477	0	-2.18103	0	-0.00833866	269.3	27.8889	-0.236975	0.006	-0.75994	0	2.96441	0	0	0	0	0	0	0	0	0	0
3.69	0.810948	354.92	-30.3623	-0.23094	0.006	-0.407495	0	-2.32469	0	-0.21197	274.067	28.1821	-0.235569	0.006	-0.760017	0	3.08158	0	0	0	0	0	0	0	0	0	0
3.7	0.799325	360.972	-30.4879	-0.22963	0.006	-0.407497	0	-2.46841	0	-0.372177	278.524	28.4443	-0.234195	0.006	-0.760098	0	3.20608	0	0	0	0	0	0	0	0	0	0
3.71	0.888808	366.245	-30.6145	-0.228369	0.006	-0.407476	0	-2.61233	0	-0.50651	282.64	28.6783	-0.23285	0.006	-0.760188	0	3.33943	0	0	0	0	0	0	0	0	0	0
3.72	1.06391	370.71	-30.7433	-0.227142	0.006	-0.407428	0	-2.75655	0	-0.63334	286.379	28.8855	-0.231529	0.006	-0.760291	0	3.48322	0	0	0	0	0	0	0	0	0	0
3.73	1.30973	374.382	-30.8719	-0.22594	0.006	-0.40735	0	-2.90105	0	-0.770029	289.712	29.0663	-0.230227	0.006	-0.760413	0	3.63904	0	0	0	0	0	0	0	0	0	0
3.74	1.61303	377.313	-30.9958	-0.224757	0.006	-0.407242	0	-3.04588	0	-0.933408	292.628	29.2223	-0.228937	0.006	-0.760558	0	3.8083	0	0	0	0	0	0	0	0	0	0
3.75	1.9625	379.597	-31.11	-0.22359	0.006	-0.407107	0	-3.19127	0	-1.13939	295.142	29.3576	-0.227653	0.006	-0.760729	0	3.99211	0	0	0	0	0	0	0	0	0	0
3.76	2.34758	381.356	-31.21	-0.22244	0.006	-0.406947	0	-3.33772	0	-1.40183	297.295	29.4782	-0.226368	0.006	-0.760931	0	4.19132	0	0	0	0	0	0	0	0	0	0
3.77	2.7557	382.729	-31.2924	-0.221309	0.006	-0.406766	0	-3.48614	0	-1.73117	299.148	29.591	-0.225082	0.006	-0.761166	0	4.40628	0	0	0	0	0	0	0	0	0	0
3.78	3.16916	383.859	-31.3562	-0.220198	0.006	-0.406566	0	-3.6378	0	-2.13361	300.776	29.7012	-0.223794	0.006	-0.761433	0	4.63692	0	0	0	0	0	0	0	0	0	0
3.79	3.56376	384.881	-31.404	-0.21911	0.006	-0.406351	0	-3.79406	0	-2.61069	302.257	29.8108	-0.222507	0.006	-0.761731	0	4.8829	0	0	0	0	0	0	0	0	0	0
3.8	3.91227	385.91	-31.4407	-0.218047	0.006	-0.406123	0	-3.95609	0	-3.15951	303.665	29.9166	-0.221226	0.006	-0.762057	0	5.14367	0	0	0	0	0	0	0	0	0	0
3.81	4.18994	387.045	-31.4708	-0.217014	0.006	-0.405886	0	-4.12482	0	-3.77267	305.063	30.0091	-0.219955	0.006	-0.762404	0	5.41848	0	0	0	0	0	0	0	0	0	0
3.82	4.37844	388.363	-31.4957	-0.216016	0.006	-0.405647	0	-4.30098	0	-4.43707	306.497	30.0729	-0.2187	0.006	-0.762767	0	5.70635	0	0	0	0	0	0	0	0	0	0
3.83	4.46713	389.916	-31.5117	-0.21506	0.006	-0.405409	0	-4.48517	0	-5.133	307.997	30.0892	-0.217467	0.006	-0.763137	0	6.00599	0	0	0	0	0	0	0	0	0	0
3.84	4.45124	391.729	-31.5096	-0.214153	0.006	-0.405182	0	-4.67784	0	-5.83604	309.575	30.0392	-0.216262	0.006	-0.763505	0	6.3159	0	0	0	0	0	0	0	0	0	0
3.85	4.33008	393.806	-31.4748	-0.213301	0.006	-0.404972	0	-4.87913	0	-6.52241	311.242	29.9078	-0.215094	0.006	-0.763864	0	6.63429	0	0	0	0	0	0	0	0	0	0
3.86	4.10693	396.13	-31.389	-0.212509	0.006	-0.404785	0	-5.08872	0	-7.17231	313.007	29.6858	-0.213969	0.006	-0.764207	0	6.95915	0	0	0	0	0	0	0	0	0	0
3.87	3.78822	398.671	-31.2324	-0.211783	0.006	-0.404628	0	-5.30601	0	-7.77079	314.88	29.3705	-0.212895	0.006	-0.764527	0	7.28826	0	0	0	0	0	0	0	0	0	0
3.88	3.38289	401.39	-30.9849	-0.211126	0.006	-0.404504	0	-5.53019	0	-8.3066	316.873	28.9647	-0.211883	0.006	-0.764821	0	7.61919	0	0	0	0	0	0	0	0	0	0
3.89	2.9032	404.24	-30.6288	-0.210539	0.006	-0.404417	0	-5.7604	0	-8.77102	318.996	28.4741	-0.210941	0.006	-0.765084	0	7.94934	0	0	0	0	0	0	0	0	0	0
3.9	2.36542	407.169	-30.1502	-0.210024	0.006	-0.40437	0	-5.99568	0	-9.15645	321.246	27.905	-0.210081	0.006	-0.765314	0	8.27592	0	0	0	0	0	0	0	0	0	0
3.91	1.78936	410.118	-29.542	-0.209578	0.006	-0.404361	0	-6.23482	0	-9.45516	323.608	27.2614	-0.209312	0.006	-0.765509	0	8.59589	0	0	0	0	0	0	0	0	0	0
3.92	1.19604	413.024	-28.805	-0.209198	0.006	-0.40439	0	-6.47613	0	-9.65942	326.047	26.5439	-0.208642	0.006	-0.765667	0	8.90594	0	0	0	0	0	0	0	0	0	0
3.93	0.605807	415.818	-27.9492	-0.20888	0.006	-0.404452	0	-6.71745	0	-9.76213	328.5	25.7502	-0.208076	0.006	-0.765783	0	9.20241	0	0	0	0	0	0	0	0	0	0
3.94	0.037023	418.431	-26.9928	-0.208617	0.006	-0.404542	0	-6.95604	0	-9.75956	330.882	24.8762	-0.207617	0.006	-0.765858	0	9.48147	0	0	0	0	0	0	0	0	0	0
3.95	-0.493944	420.794	-25.9586	-0.208404	0.006	-0.404653	0	-7.18875	0	-9.65494	333.095	23.9191	-0.20726	0.006	-0.765889	0	9.73945	0	0	0	0	0	0	0	0	0	0
3.96	-0.971487	422.841	-24.8706	-0.208236	0.006	-0.404779	0	-7.4124	0	-9.46066	335.036	22.8792	-0.206997	0.006	-0.765876	0	9.97294	0	0	0	0	0	0	0	0	0	0
3.97	-1.37997	424.515	-23.7509	-0.20811	0.006	-0.404915	0	-7.62401	0	-9.19614	336.609	21.761	-0.206815	0.006	-0.765823	0	10.179	0	0	0	0	0	0	0	0	0	0
3.98	-1.70366	425.765	-22.6176	-0.208025	0.006	-0.405055	0	-7.82105	0	-8.88367	337.732	20.5735	-0.206702	0.006	-0.765731	0	10.3554	0	0	0	0	0	0	0	0	0	0
3.99	-1.92784	426.553	-21.4836	-0.207983	0.006	-0.405197	0	-8.0013	0	-8.54309	338.342	19.3292	-0.206643	0.006	-0.765605	0	10.5003	0	0	0	0	0	0	0	0	0	0
4	-2.04112	426.843	-20.3582	-0.207983	0.006	-0.405337	0	-8.16292	0	-8.18838	338.394	18.0423	-0.206627	0.006	-0.765451	0	10.6127	0	0	0	0	0	0	0	0	0	0
4.01	-2.03892	426.599	-19.2484	-0.208024	0.006	-0.405475	0	-8.30423	0	-7.82674	337.862	16.7276	-0.206643	0.006	-0.765272	0	10.6925	0	0	0	0	0	0	0	0	0	0
4.02	-1.92585	425.787	-18.1618	-0.208105	0.006	-0.405608	0	-8.42361	0	-7.46017	336.736	15.4001	-0.206682	0.006	-0.765074	0	10.7397	0	0	0	0	0	0	0	0	0	0
4.03	-1.71579	424.37	-17.1075	-0.208217	0.006	-0.405733	0	-8.51963	0	-7.0882	335.026	14.0739	-0.206737	0.006	-0.764861	0	10.7553	0	0	0	0	0	0	0	0	0	0
4.04	-1.42959	422.321	-16.097	-0.208354	0.006	-0.405848	0	-8.59118	0	-6.70907	332.757	12.7627	-0.206802	0.006	-0.764639	0	10.7412	0	0	0	0	0	0	0	0	0	0
4.05	-1.0918	419.623	-15.1426	-0.208507	0.006	-0.40595	0	-8.63767	0	-6.32098	329.967	11.4794	-0.206874	0.006	-0.76441	0	10.6998	0	0	0	0	0	0	0	0	0	0
4.06	-0.727336	416.281	-14.2564	-0.208665	0.006	-0.406038	0	-8.65914	0	-5.9238	326.706	10.2375	-0.206952	0.006	-0.764178	0	10.6342	0	0	0	0	0	0	0	0	0	0
4.07	-0.358663	412.331	-13.4482	-0.208823	0.006	-0.40611	0	-8.65642	0	-5.52106	323.031	9.05153	-0.207033	0.006	-0.763948	0	10.5474	0	0	0	0	0	0	0	0	0	0
4.08	-0.00563631	407.83	-12.7253	-0.208972	0.006	-0.406165	0	-8.6311	0	-5.121	319.004	7.93701	-0.207112	0.006	-0.763723	0	10.4428	0	0	0	0	0	0	0	0	0	0
4.09	0.313545	402.856	-12.0924	-0.209109	0.006	-0.406203	0	-8.58551	0	-4.73609	314.689	6.90983	-0.207182	0.006	-0.76351	0	10.3236	0	0	0	0	0	0	0	0	0	0
